<svg id="visual" viewBox="0 0 900 600" width="900" height="600" xmlns="http://www.w3.org/2000/svg" xmlns:xlink="http://www.w3.org/1999/xlink" version="1.1"><rect x="0" y="0" width="900" height="600" fill="#001220"></rect><defs><linearGradient id="grad1_0" x1="33.3%" y1="0%" x2="100%" y2="100%"><stop offset="20%" stop-color="#001220" stop-opacity="1"></stop><stop offset="80%" stop-color="#001220" stop-opacity="1"></stop></linearGradient></defs><defs><linearGradient id="grad2_0" x1="0%" y1="0%" x2="66.7%" y2="100%"><stop offset="20%" stop-color="#001220" stop-opacity="1"></stop><stop offset="80%" stop-color="#001220" stop-opacity="1"></stop></linearGradient></defs><g transform="translate(900, 0)"><path d="M0 486.7C-65.7 473.8 -131.3 460.9 -176.4 425.9C-221.5 390.9 -246.1 333.8 -294.2 294.2C-342.2 254.5 -413.7 232.4 -449.7 186.3C-485.7 140.2 -486.2 70.1 -486.7 0L0 0Z" fill="#C5FF8E"></path></g><g transform="translate(0, 600)"><path d="M0 -486.7C56.7 -462 113.5 -437.3 172.6 -416.7C231.7 -396.1 293.2 -379.6 342.2 -342.2C391.2 -304.9 427.7 -246.8 449.7 -186.3C471.7 -125.8 479.2 -62.9 486.7 0L0 0Z" fill="#C5FF8E"></path></g></svg>