<svg width="44" height="44" viewBox="0 0 44 44" fill="none" xmlns="http://www.w3.org/2000/svg">
<rect width="44" height="44" rx="4" fill="black"/>
<path d="M16.5 20.1667L22 25.6667L40.3333 7.33333M29.3333 5.5H14.3C11.2197 5.5 9.67957 5.5 8.50305 6.09946C7.46816 6.62677 6.62677 7.46816 6.09946 8.50305C5.5 9.67957 5.5 11.2197 5.5 14.3V29.7C5.5 32.7803 5.5 34.3204 6.09946 35.4969C6.62677 36.5318 7.46816 37.3732 8.50305 37.9005C9.67957 38.5 11.2197 38.5 14.3 38.5H29.7C32.7803 38.5 34.3204 38.5 35.4969 37.9005C36.5318 37.3732 37.3732 36.5318 37.9005 35.4969C38.5 34.3204 38.5 32.7803 38.5 29.7V22" stroke="white" stroke-width="3" stroke-linecap="round" stroke-linejoin="round"/>
</svg>
